<?xml version="1.0" encoding="utf-8"?>
<!-- Generator: Adobe Illustrator 19.2.1, SVG Export Plug-In . SVG Version: 6.00 Build 0)  -->
<svg version="1.1" id="svg0" xmlns:svg="http://www.w3.org/2000/svg"
	 xmlns="http://www.w3.org/2000/svg" xmlns:xlink="http://www.w3.org/1999/xlink" x="0px" y="0px" viewBox="0 0 48 48"
	 style="enable-background:new 0 0 48 48;" xml:space="preserve">
<style type="text/css">
	.st0{opacity:0.5;fill:url(#s_1_);enable-background:new    ;}
	.st1{fill:url(#star_1_);stroke:#C4A000;}
	.st2{opacity:0.8;fill:url(#hl_1_);enable-background:new    ;}
	.st3{opacity:0.69;fill:none;stroke:#FFFFFF;enable-background:new    ;}
</style>
<radialGradient id="s_1_" cx="-141.9375" cy="-173.1785" r="9.6875" gradientTransform="matrix(2.4 0 0 -0.67 365.1 -76.5237)" gradientUnits="userSpaceOnUse">
	<stop  offset="0" style="stop-color:#000000;stop-opacity:0.63"/>
	<stop  offset="1" style="stop-color:#000000;stop-opacity:0"/>
</radialGradient>
<path id="s" class="st0" d="M47,39.5c0,3.6-10.3,6.5-23,6.5S1,43.1,1,39.5C1,35.9,11.3,32,24,32S47,35.9,47,39.5z"/>
<radialGradient id="star_1_" cx="-62.8462" cy="-11.3408" r="22" gradientTransform="matrix(1 -0.2 -0.2 -1 85.178 8.998473e-02)" gradientUnits="userSpaceOnUse">
	<stop  offset="0" style="stop-color:#E6CF00"/>
	<stop  offset="1" style="stop-color:#FDE94A"/>
</radialGradient>
<path id="star" class="st1" d="M37.3,41.5L24,34.8l-13.3,6.6l2.6-14.1l-10.7-10l14.9-2l6.7-12.8l6.6,12.8l14.9,2.1l-10.8,10
	L37.3,41.5z"/>
<linearGradient id="hl_1_" gradientUnits="userSpaceOnUse" x1="19.8493" y1="42.6145" x2="29.2195" y2="14.8127" gradientTransform="matrix(1 0 0 -1 0 47.89)">
	<stop  offset="0" style="stop-color:#FCF9FB"/>
	<stop  offset="1" style="stop-color:#FCF9FB;stop-opacity:0"/>
</linearGradient>
<path id="hl" class="st2" d="M17.7,15.8l6.3-12.2l6.3,12.2l14.1,2l-3.6,3.4c-16.4-3.7-9.5,7.2-27.6,9.2l0.6-3.2L3.7,17.7L17.7,15.8z
	"/>
<path id="ol" class="st3" d="M36,39.7l-11.9-6l-11.9,6L14.4,27l-9.6-8.9l13.3-1.8l6-11.6l6,11.6l13.3,1.9L33.7,27L36,39.7z"/>
</svg>
