<?xml version="1.0" encoding="utf-8"?>
<!-- Generator: Adobe Illustrator 19.2.1, SVG Export Plug-In . SVG Version: 6.00 Build 0)  -->
<svg version="1.1" id="svg0" xmlns:svg="http://www.w3.org/2000/svg"
	 xmlns="http://www.w3.org/2000/svg" xmlns:xlink="http://www.w3.org/1999/xlink" x="0px" y="0px" viewBox="0 0 48 48"
	 style="enable-background:new 0 0 48 48;" xml:space="preserve">
<style type="text/css">
	.st0{opacity:0.5;fill:url(#s_1_);enable-background:new    ;}
	.st1{fill:none;stroke:#C4A000;}
	.st2{opacity:0.69;fill:none;stroke:#FFFFFF;enable-background:new    ;}
</style>
<radialGradient id="s_1_" cx="-301.1875" cy="1210.6058" r="9.6875" gradientTransform="matrix(2.4 0 0 0.67 747.3 -771.6)" gradientUnits="userSpaceOnUse">
	<stop  offset="0" style="stop-color:#000000;stop-opacity:0.63"/>
	<stop  offset="1" style="stop-color:#000000;stop-opacity:0"/>
</radialGradient>
<path id="s" class="st0" d="M47,39.5c0,3.6-10.3,6.5-23,6.5S1,43.1,1,39.5S11.3,32,24,32S47,35.9,47,39.5z"/>
<path id="star" class="st1" d="M37.3,41.5L24,34.8l-13.3,6.6l2.6-14.1l-10.7-10l14.9-2l6.7-12.8l6.6,12.8l14.9,2.1l-10.8,10
	L37.3,41.5z"/>
<path id="ol" class="st2" d="M36,39.7l-11.9-6l-11.9,6L14.4,27l-9.6-8.9l13.3-1.8l6-11.6l6,11.6l13.3,1.9L33.7,27L36,39.7z"/>
</svg>
